<svg xmlns="http://www.w3.org/2000/svg" width="40" height="40" viewBox="0 0 40 40" fill="none">
  <g clip-path="url(#clip0_1312_421)">
    <path d="M39.2556 20.0651C38.7485 15.2936 36.0767 11.4354 32.5305 8.80718C28.9455 6.1478 24.4605 4.68812 20.2121 4.6853C15.8025 4.68601 13.0823 5.24569 11.2815 6.01983C9.50211 6.77327 8.64289 7.81515 8.17109 8.42944C6.24297 8.74421 4.3225 9.86288 2.79844 11.4526C1.18023 13.1518 0.00421875 15.4237 0 17.9204C0 20.6524 0.63375 22.961 1.89836 24.678C3.01977 26.209 4.65523 27.2149 6.60203 27.5802C6.73 28.319 7.03641 29.143 7.67016 29.8964C8.32734 30.6823 9.22391 31.2544 10.2838 31.6176C11.345 31.9829 12.5751 32.1517 13.9739 32.153H19.8398C19.9844 32.5225 20.1608 32.8746 20.4037 33.1853C21.0007 33.9498 21.8606 34.4866 22.8907 34.8228C23.9257 35.1611 25.1453 35.3141 26.5622 35.3147C27.2582 35.3147 27.9175 35.2829 28.4772 35.2559H28.4792C28.8805 35.2345 29.2257 35.2193 29.4712 35.2193C30.2108 35.2193 30.9186 35.0394 31.5273 34.6865C32.1362 34.3351 32.6412 33.8142 32.9864 33.1743C33.1608 32.8498 33.2756 32.5094 33.3614 32.1663C34.6682 31.9221 35.7523 31.4448 36.5963 30.836C37.5856 30.1234 38.2656 29.2649 38.7278 28.4852C39.6306 26.9577 39.9987 25.2628 40.0001 23.6896C39.9986 22.3487 39.7274 21.1 39.2556 20.0651ZM37.1767 27.5663C36.8135 28.1786 36.2898 28.8351 35.5427 29.3726C34.7941 29.9095 33.8207 30.3398 32.4911 30.4913L31.7474 30.5751L31.6927 31.3215C31.6699 31.644 31.5696 32.0065 31.4008 32.3184C31.205 32.6761 30.9449 32.9405 30.6259 33.1258C30.3056 33.3099 29.9223 33.4157 29.4712 33.4163C29.153 33.4163 28.7905 33.4351 28.3886 33.4551L28.5387 33.4482L28.3892 33.4551C27.831 33.4828 27.2034 33.5126 26.5622 33.5126C24.8479 33.5153 23.5701 33.2504 22.7538 32.8201C22.3436 32.6063 22.046 32.3587 21.8254 32.077C21.6061 31.7941 21.4573 31.4723 21.3737 31.0705L21.2249 30.3503H13.974C12.7232 30.3503 11.6848 30.1947 10.8705 29.9145C10.0548 29.6316 9.46891 29.2366 9.05172 28.7384C8.50797 28.0895 8.34672 27.3853 8.32602 26.7668L8.3018 25.9795L7.51867 25.898C5.68125 25.6964 4.32453 24.9195 3.34844 23.6078C2.37781 22.2941 1.80227 20.3812 1.80227 17.9205C1.79805 16.0125 2.72992 14.1334 4.1025 12.6958C5.4668 11.2541 7.26344 10.2994 8.74461 10.1597L9.0843 10.1244L9.31602 9.8739C9.41977 9.76046 9.50211 9.65116 9.57336 9.56124C10.041 8.97733 10.5198 8.3264 11.9954 7.67538C13.4677 7.03819 15.9526 6.48616 20.2121 6.48686C24.0462 6.48405 28.2026 7.83311 31.4568 10.2538C34.7166 12.6793 37.0646 16.1251 37.4798 20.3771L37.4956 20.541L37.5677 20.6884C37.9461 21.4522 38.2 22.5328 38.1978 23.6895C38.1978 24.9825 37.89 26.3633 37.1767 27.5663Z" fill="#999999"/>
    <path d="M27.8939 11.4388H29.7736C30.1776 11.4388 30.5062 11.1074 30.5062 10.6909C30.5062 10.2835 30.1776 9.95422 29.7736 9.95422H27.8939C27.4775 9.95422 27.1475 10.2836 27.1475 10.6909C27.1475 11.1074 27.4775 11.4388 27.8939 11.4388Z" fill="#999999"/>
    <path d="M19.0789 18.5396C19.0789 18.9527 19.4109 19.2868 19.8211 19.2868C20.2244 19.2868 20.5614 18.9527 20.5614 18.5396V14.4912C20.5614 14.3038 20.6167 14.2601 20.6306 14.2428C20.8665 14.0111 21.7457 14.0111 22.3621 14.0111L22.3857 14.0194H27.2471C27.3411 14.0194 27.4408 14.0111 27.5522 14.0111C27.9438 13.9938 28.4274 13.9772 28.63 14.173C28.7587 14.2988 28.8335 14.5784 28.8335 14.9533V17.4384V17.549C28.8175 18.0602 28.8147 18.9209 29.3903 19.5054C29.6145 19.7365 30.031 20.0104 30.7103 20.0104H34.5299C34.9311 20.0104 35.2605 19.6797 35.2605 19.2639C35.2605 18.8578 34.9311 18.5202 34.5299 18.5202H30.7103L30.4433 18.4573C30.3077 18.3169 30.3167 17.8063 30.3167 17.5614V14.9532C30.3167 14.148 30.0912 13.5253 29.6609 13.1095C28.9981 12.4738 28.0967 12.5001 27.5024 12.5249C27.4041 12.5249 27.3225 12.5284 27.2471 12.5284H24.7967C24.8258 12.3236 24.8258 12.1175 24.8182 11.9321V9.77571C24.8182 9.37032 24.4847 9.0354 24.08 9.0354C23.6671 9.0354 23.3433 9.37024 23.3433 9.77571V11.9438C23.3433 12.1174 23.3433 12.3921 23.3066 12.4634C23.3066 12.4634 23.2049 12.5284 22.8133 12.5284C22.7007 12.5284 22.5796 12.5284 22.4474 12.5284C21.438 12.5159 20.2772 12.5124 19.5868 13.1904C19.3613 13.4187 19.079 13.8317 19.079 14.491V18.5396H19.0789Z" fill="#999999"/>
    <path d="M16.6934 12.4772C17.1078 12.4772 17.4399 12.1375 17.4399 11.7329V10.6708H18.6844C19.0871 10.6708 19.4198 10.3374 19.4198 9.92442C19.4198 9.52113 19.0871 9.18278 18.6844 9.18278H17.4399V8.36504C17.4399 7.95621 17.1078 7.62067 16.6934 7.62067C16.2907 7.62067 15.958 7.95614 15.958 8.36504V11.7329C15.958 12.1375 16.2907 12.4772 16.6934 12.4772Z" fill="#999999"/>
    <path d="M8.65955 13.5689H11.743C12.246 13.551 12.7246 13.551 12.9502 13.7882C13.1501 13.9834 13.2601 14.4219 13.2601 15.0515V17.9461C13.2601 18.3556 13.5908 18.6919 14.0086 18.6919C14.4113 18.6919 14.7475 18.3557 14.7475 17.9461V17.3303H15.9105C16.3207 17.3303 16.648 16.9962 16.648 16.5873C16.648 16.1771 16.3208 15.8374 15.9105 15.8374H14.7475V15.0515C14.7475 13.9834 14.5026 13.2272 13.9955 12.7284C13.3376 12.0684 12.4486 12.0746 11.7395 12.0809H8.65955C8.23893 12.0809 7.9165 12.4177 7.9165 12.8211C7.9165 13.2334 8.23893 13.5689 8.65955 13.5689Z" fill="#999999"/>
    <path d="M10.6167 17.8983C10.6167 17.4881 10.2757 17.1519 9.87582 17.1519H4.67129C4.26035 17.1519 3.9248 17.4881 3.9248 17.8983C3.9248 18.3072 4.26035 18.6427 4.67129 18.6427H6.55785V19.9973C6.55785 20.4103 6.88504 20.741 7.29113 20.741C7.71316 20.741 8.04035 20.4103 8.04035 19.9973V18.6427H9.87582C10.2757 18.6427 10.6167 18.3071 10.6167 17.8983Z" fill="#999999"/>
    <path d="M15.2013 22.7665C15.3314 22.7665 15.4546 22.7665 15.5645 22.7665H21.557C22.924 22.7665 23.9611 22.404 24.6508 21.6819C25.7106 20.5598 25.6366 18.898 25.5819 17.8001C25.5722 17.5905 25.5626 17.3933 25.5626 17.228C25.5626 16.8142 25.2305 16.485 24.8119 16.485C24.4073 16.485 24.0801 16.8143 24.0801 17.228C24.0801 17.4161 24.0897 17.6319 24.0994 17.8616C24.1451 18.8191 24.1963 19.9973 23.564 20.6642C23.178 21.0751 22.4951 21.2806 21.557 21.2806H15.5645C15.4601 21.2806 15.3536 21.2806 15.2248 21.2806C14.0426 21.2626 12.0542 21.2308 10.791 22.4774C10.0826 23.1762 9.72217 24.1606 9.72217 25.399C9.72217 25.8015 10.0479 26.1427 10.4631 26.1427C10.8678 26.1427 11.2061 25.8016 11.2061 25.399C11.2061 24.5577 11.4087 23.9475 11.8349 23.5304C12.6512 22.7292 14.1885 22.7527 15.2013 22.7665Z" fill="#999999"/>
    <path d="M25.3094 25.9856C25.3094 25.5823 24.9835 25.2433 24.5691 25.2433H15.1646C14.7591 25.2433 14.4194 25.5823 14.4194 25.9856C14.4194 26.3972 14.7591 26.7293 15.1646 26.7293H18.0404V28.2125C18.0404 28.6284 18.3704 28.9548 18.7793 28.9548C19.1895 28.9548 19.5209 28.6284 19.5209 28.2125V26.7293H24.5691C24.9834 26.7293 25.3094 26.3972 25.3094 25.9856Z" fill="#999999"/>
    <path d="M29.5225 28.9113H29.1732V27.529C29.1732 27.1084 28.8466 26.7847 28.433 26.7847C28.022 26.7847 27.6906 27.1085 27.6906 27.529V28.9113H25.1171C24.7076 28.9113 24.3748 29.2426 24.3748 29.6557C24.3748 30.0638 24.7076 30.3938 25.1171 30.3938H29.5226C29.9294 30.3938 30.2635 30.0638 30.2635 29.6557C30.2634 29.2426 29.9294 28.9113 29.5225 28.9113Z" fill="#999999"/>
    <path d="M32.9359 25.2433V24.0306H33.203C33.6215 24.0306 33.9529 23.7048 33.9529 23.2938C33.9529 22.8836 33.6215 22.5474 33.203 22.5474H28.0109C27.6027 22.5474 27.2678 22.8836 27.2678 23.2938C27.2678 23.7048 27.6027 24.0306 28.0109 24.0306H31.447V25.2433C31.447 25.6619 31.784 25.9856 32.1936 25.9856C32.6024 25.9856 32.9359 25.6619 32.9359 25.2433Z" fill="#999999"/>
    <path d="M35.2603 27.1804H33.382C32.9676 27.1804 32.6362 27.5069 32.6362 27.92C32.6362 28.3329 32.9676 28.6567 33.382 28.6567H35.2603C35.6767 28.6567 36.0115 28.3329 36.0115 27.92C36.0116 27.5069 35.6767 27.1804 35.2603 27.1804Z" fill="#999999"/>
  </g>
  <defs>
    <clipPath id="clip0_1312_421">
      <rect width="40" height="40" fill="white"/>
    </clipPath>
  </defs>
</svg>