<svg xmlns="http://www.w3.org/2000/svg" width="40" height="40" viewBox="0 0 40 40" fill="none">
  <path d="M4.79999 20C4.79999 13.12 10.416 7.52 17.344 7.52" stroke="white" stroke-width="2" stroke-miterlimit="10" stroke-linecap="round"/>
  <path d="M4.79999 20V31.68C4.79999 32.128 5.15199 32.48 5.59999 32.48H16.544C16.992 32.48 17.344 32.128 17.344 31.68V20.8C17.344 20.352 16.992 20 16.544 20H7.99999" stroke="white" stroke-width="2" stroke-miterlimit="10" stroke-linecap="round"/>
  <path d="M22.656 20C22.656 13.12 28.272 7.52 35.2 7.52" stroke="white" stroke-width="2" stroke-miterlimit="10" stroke-linecap="round"/>
  <path d="M22.656 20V31.68C22.656 32.128 23.008 32.48 23.456 32.48H34.4C34.848 32.48 35.2 32.128 35.2 31.68V20.8C35.2 20.352 34.848 20 34.4 20H25.856" stroke="white" stroke-width="2" stroke-miterlimit="10" stroke-linecap="round"/>
</svg>