<svg xmlns="http://www.w3.org/2000/svg" width="271" height="152" viewBox="0 0 271 152" fill="none">
  <g filter="url(#filter0_d_2001_471)">
    <path d="M53.0751 89.5145V71.04H76.3835V69.9596H53.0751V53.1056H77.8573V52.0253H51.9834V90.5948H78.0757V89.5145H53.0751ZM99.0914 62.8291L89.4296 75.4155L79.9862 62.8291H78.5669L88.7746 76.2258L77.5844 90.5948H78.8945L89.4296 77.0361L100.019 90.5948H101.384L90.1393 76.2258L100.401 62.8291H99.0914ZM104.659 100.102V82.8161H104.768C105.423 85.337 106.715 87.3627 108.644 88.8932C110.573 90.4238 113.029 91.189 116.013 91.189C117.942 91.189 119.652 90.8019 121.144 90.0276C122.636 89.2534 123.883 88.2 124.883 86.8675C125.884 85.5351 126.648 83.9865 127.176 82.2219C127.704 80.4573 127.968 78.6026 127.968 76.6579C127.968 74.5692 127.695 72.6425 127.149 70.8779C126.603 69.1133 125.811 67.5828 124.774 66.2863C123.737 64.9898 122.482 63.9815 121.008 63.2612C119.534 62.541 117.869 62.1808 116.013 62.1808C114.594 62.1808 113.275 62.3879 112.056 62.8021C110.837 63.2162 109.754 63.8014 108.808 64.5577C107.862 65.3139 107.043 66.2053 106.351 67.2316C105.66 68.258 105.132 69.3834 104.768 70.6078H104.659V62.8291H103.567V100.102H104.659ZM116.013 90.1627C112.592 90.1627 109.845 89.0013 107.771 86.6785C105.696 84.3556 104.659 81.0155 104.659 76.6579C104.659 74.8573 104.914 73.1467 105.423 71.5261C105.933 69.9056 106.67 68.4831 107.634 67.2586C108.599 66.0342 109.79 65.0619 111.21 64.3416C112.629 63.6213 114.23 63.2612 116.013 63.2612C117.833 63.2612 119.425 63.6213 120.789 64.3416C122.154 65.0619 123.282 66.0432 124.174 67.2856C125.065 68.5281 125.739 69.9506 126.194 71.5531C126.648 73.1557 126.876 74.8573 126.876 76.6579C126.876 78.2785 126.667 79.8901 126.248 81.4926C125.83 83.0952 125.184 84.5357 124.31 85.8142C123.437 87.0926 122.318 88.137 120.953 88.9473C119.589 89.7575 117.942 90.1627 116.013 90.1627ZM133.972 90.5948V74.8753C133.972 73.3628 134.19 71.8863 134.627 70.4457C135.064 69.0052 135.737 67.7358 136.647 66.6374C137.557 65.539 138.712 64.6747 140.113 64.0445C141.514 63.4143 143.179 63.1532 145.108 63.2612V62.1808C143.434 62.1448 141.969 62.3249 140.713 62.721C139.458 63.1172 138.375 63.6574 137.466 64.3416C136.556 65.0258 135.828 65.8271 135.282 66.7454C134.736 67.6638 134.336 68.6451 134.081 69.6895H133.972V62.8291H132.88V90.5948H133.972ZM146.472 76.928H169.944C170.017 75.0194 169.826 73.1827 169.371 71.4181C168.916 69.6535 168.189 68.0869 167.188 66.7184C166.187 65.3499 164.895 64.2516 163.312 63.4233C161.729 62.595 159.846 62.1808 157.663 62.1808C156.098 62.1808 154.569 62.505 153.077 63.1532C151.585 63.8014 150.275 64.7467 149.147 65.9892C148.019 67.2316 147.109 68.7531 146.418 70.5538C145.726 72.3544 145.381 74.4071 145.381 76.712C145.381 78.7647 145.617 80.6823 146.09 82.465C146.563 84.2476 147.291 85.7961 148.274 87.1106C149.256 88.4251 150.521 89.4424 152.067 90.1627C153.614 90.8829 155.479 91.2251 157.663 91.189C160.865 91.189 163.558 90.2977 165.741 88.5151C167.925 86.7325 169.217 84.2206 169.617 80.9795H168.525C168.052 84.0406 166.842 86.3363 164.895 87.8669C162.948 89.3974 160.501 90.1627 157.553 90.1627C155.552 90.1627 153.86 89.8206 152.477 89.1363C151.094 88.4521 149.966 87.5158 149.092 86.3273C148.219 85.1389 147.573 83.7434 147.155 82.1409C146.736 80.5383 146.509 78.8007 146.472 76.928ZM168.853 75.8477H146.472C146.582 73.903 146.945 72.1564 147.564 70.6078C148.183 69.0593 148.992 67.7358 149.993 66.6374C150.994 65.539 152.158 64.7017 153.487 64.1255C154.815 63.5493 156.243 63.2612 157.772 63.2612C159.591 63.2612 161.192 63.5943 162.575 64.2606C163.958 64.9268 165.114 65.8361 166.042 66.9885C166.97 68.1409 167.67 69.4824 168.143 71.013C168.616 72.5435 168.853 74.155 168.853 75.8477ZM192.598 71.04H193.69C193.69 67.9429 192.78 65.6921 190.96 64.2876C189.141 62.8831 186.666 62.1808 183.536 62.1808C181.79 62.1808 180.316 62.3969 179.115 62.8291C177.914 63.2612 176.932 63.8194 176.167 64.5037C175.403 65.1879 174.857 65.9442 174.53 66.7725C174.202 67.6008 174.038 68.393 174.038 69.1493C174.038 70.6618 174.311 71.8682 174.857 72.7686C175.403 73.6689 176.258 74.3711 177.423 74.8753C178.223 75.2354 179.133 75.5595 180.152 75.8477C181.171 76.1358 182.354 76.4419 183.7 76.766C184.901 77.0541 186.084 77.3422 187.248 77.6303C188.413 77.9184 189.441 78.3055 190.332 78.7917C191.224 79.2779 191.952 79.8991 192.516 80.6553C193.08 81.4116 193.362 82.402 193.362 83.6264C193.362 84.8148 193.08 85.8232 192.516 86.6515C191.952 87.4797 191.233 88.155 190.36 88.6772C189.486 89.1994 188.513 89.5775 187.439 89.8116C186.366 90.0456 185.32 90.1627 184.301 90.1627C180.989 90.1627 178.451 89.4334 176.686 87.9749C174.921 86.5164 174.038 84.2206 174.038 81.0875H172.947C172.947 84.5807 173.902 87.1376 175.813 88.7582C177.723 90.3788 180.552 91.189 184.301 91.189C185.502 91.189 186.712 91.054 187.931 90.7839C189.15 90.5138 190.242 90.0727 191.206 89.4604C192.17 88.8482 192.953 88.056 193.553 87.0836C194.154 86.1113 194.454 84.9229 194.454 83.5184C194.454 82.1859 194.19 81.1055 193.662 80.2772C193.135 79.4489 192.443 78.7647 191.588 78.2245C190.733 77.6843 189.768 77.2612 188.695 76.955C187.621 76.6489 186.539 76.3518 185.447 76.0637C183.919 75.6676 182.581 75.3255 181.435 75.0374C180.289 74.7493 179.224 74.4071 178.242 74.011C177.295 73.6149 176.54 73.0477 175.976 72.3094C175.412 71.5711 175.13 70.5178 175.13 69.1493C175.13 68.8972 175.203 68.4471 175.349 67.7988C175.494 67.1506 175.84 66.4934 176.386 65.8271C176.932 65.1609 177.769 64.5667 178.897 64.0445C180.025 63.5223 181.571 63.2612 183.536 63.2612C184.883 63.2612 186.111 63.4053 187.221 63.6934C188.331 63.9815 189.286 64.4406 190.087 65.0709C190.887 65.7011 191.506 66.5024 191.943 67.4747C192.379 68.4471 192.598 69.6355 192.598 71.04ZM217.871 71.04H218.963C218.963 67.9429 218.053 65.6921 216.234 64.2876C214.414 62.8831 211.94 62.1808 208.81 62.1808C207.063 62.1808 205.589 62.3969 204.388 62.8291C203.188 63.2612 202.205 63.8194 201.441 64.5037C200.677 65.1879 200.131 65.9442 199.803 66.7725C199.476 67.6008 199.312 68.393 199.312 69.1493C199.312 70.6618 199.585 71.8682 200.131 72.7686C200.677 73.6689 201.532 74.3711 202.696 74.8753C203.497 75.2354 204.407 75.5595 205.426 75.8477C206.445 76.1358 207.627 76.4419 208.974 76.766C210.175 77.0541 211.357 77.3422 212.522 77.6303C213.686 77.9184 214.714 78.3055 215.606 78.7917C216.498 79.2779 217.225 79.8991 217.789 80.6553C218.353 81.4116 218.636 82.402 218.636 83.6264C218.636 84.8148 218.353 85.8232 217.789 86.6515C217.225 87.4797 216.507 88.155 215.633 88.6772C214.76 89.1994 213.786 89.5775 212.713 89.8116C211.639 90.0456 210.593 90.1627 209.574 90.1627C206.263 90.1627 203.724 89.4334 201.959 87.9749C200.194 86.5164 199.312 84.2206 199.312 81.0875H198.22C198.22 84.5807 199.175 87.1376 201.086 88.7582C202.997 90.3788 205.826 91.189 209.574 91.189C210.775 91.189 211.985 91.054 213.204 90.7839C214.423 90.5138 215.515 90.0727 216.479 89.4604C217.444 88.8482 218.226 88.056 218.827 87.0836C219.427 86.1113 219.727 84.9229 219.727 83.5184C219.727 82.1859 219.463 81.1055 218.936 80.2772C218.408 79.4489 217.717 78.7647 216.861 78.2245C216.006 77.6843 215.042 77.2612 213.968 76.955C212.895 76.6489 211.812 76.3518 210.72 76.0637C209.192 75.6676 207.855 75.3255 206.708 75.0374C205.562 74.7493 204.498 74.4071 203.515 74.011C202.569 73.6149 201.814 73.0477 201.25 72.3094C200.686 71.5711 200.404 70.5178 200.404 69.1493C200.404 68.8972 200.476 68.4471 200.622 67.7988C200.768 67.1506 201.113 66.4934 201.659 65.8271C202.205 65.1609 203.042 64.5667 204.17 64.0445C205.298 63.5223 206.845 63.2612 208.81 63.2612C210.156 63.2612 211.385 63.4053 212.495 63.6934C213.604 63.9815 214.56 64.4406 215.36 65.0709C216.161 65.7011 216.78 66.5024 217.216 67.4747C217.653 68.4471 217.871 69.6355 217.871 71.04Z" fill="white"/>
  </g>
  <defs>
    <filter id="filter0_d_2001_471" x="-5.28205" y="-15.2821" width="282.051" height="182.692" filterUnits="userSpaceOnUse" color-interpolation-filters="sRGB">
      <feFlood flood-opacity="0" result="BackgroundImageFix"/>
      <feColorMatrix in="SourceAlpha" type="matrix" values="0 0 0 0 0 0 0 0 0 0 0 0 0 0 0 0 0 0 127 0" result="hardAlpha"/>
      <feOffset/>
      <feGaussianBlur stdDeviation="25.641"/>
      <feComposite in2="hardAlpha" operator="out"/>
      <feColorMatrix type="matrix" values="0 0 0 0 1 0 0 0 0 1 0 0 0 0 1 0 0 0 1 0"/>
      <feBlend mode="normal" in2="BackgroundImageFix" result="effect1_dropShadow_2001_471"/>
      <feBlend mode="normal" in="SourceGraphic" in2="effect1_dropShadow_2001_471" result="shape"/>
    </filter>
  </defs>
</svg>