<svg xmlns="http://www.w3.org/2000/svg" width="40" height="40" viewBox="0 0 40 40" fill="none">
  <path d="M5.46967 8.46967C5.17678 8.76256 5.17678 9.23744 5.46967 9.53033L10.2426 14.3033C10.5355 14.5962 11.0104 14.5962 11.3033 14.3033C11.5962 14.0104 11.5962 13.5355 11.3033 13.2426L7.06066 9L11.3033 4.75736C11.5962 4.46447 11.5962 3.98959 11.3033 3.6967C11.0104 3.40381 10.5355 3.40381 10.2426 3.6967L5.46967 8.46967ZM34.5303 9.53033C34.8232 9.23744 34.8232 8.76256 34.5303 8.46967L29.7574 3.6967C29.4645 3.40381 28.9896 3.40381 28.6967 3.6967C28.4038 3.98959 28.4038 4.46447 28.6967 4.75736L32.9393 9L28.6967 13.2426C28.4038 13.5355 28.4038 14.0104 28.6967 14.3033C28.9896 14.5962 29.4645 14.5962 29.7574 14.3033L34.5303 9.53033ZM6 9.75H34V8.25H6V9.75Z" fill="#999999"/>
  <path d="M20.5303 37.5303C20.2374 37.8232 19.7626 37.8232 19.4697 37.5303L14.6967 32.7574C14.4038 32.4645 14.4038 31.9896 14.6967 31.6967C14.9896 31.4038 15.4645 31.4038 15.7574 31.6967L20 35.9393L24.2426 31.6967C24.5355 31.4038 25.0104 31.4038 25.3033 31.6967C25.5962 31.9896 25.5962 32.4645 25.3033 32.7574L20.5303 37.5303ZM19.25 37L19.25 9L20.75 9L20.75 37L19.25 37Z" fill="#999999"/>
</svg>