<svg xmlns="http://www.w3.org/2000/svg" width="170" height="180" viewBox="0 0 170 180" fill="none">
  <g filter="url(#filter0_d_2001_474)">
    <path d="M84.8985 124.554L55.6851 107.292V72.8367L84.8985 55.5741L114.112 72.8367V107.292L84.8985 124.554ZM59.0237 105.389L84.8985 120.678L110.773 105.389V74.7398L84.8985 59.4503L59.0237 74.7398V105.389Z" fill="#E8457C"/>
    <path d="M84.8985 65.0243C88.5863 65.0243 91.5759 62.0347 91.5759 58.3469C91.5759 54.6591 88.5863 51.6696 84.8985 51.6696C81.2107 51.6696 78.2212 54.6591 78.2212 58.3469C78.2212 62.0347 81.2107 65.0243 84.8985 65.0243Z" fill="#E8457C"/>
    <path d="M84.8985 128.459C88.5863 128.459 91.5759 125.469 91.5759 121.781C91.5759 118.094 88.5863 115.104 84.8985 115.104C81.2107 115.104 78.2212 118.094 78.2212 121.781C78.2212 125.469 81.2107 128.459 84.8985 128.459Z" fill="#E8457C"/>
    <path d="M58.1896 111.766C61.8774 111.766 64.8669 108.776 64.8669 105.088C64.8669 101.401 61.8774 98.4111 58.1896 98.4111C54.5018 98.4111 51.5122 101.401 51.5122 105.088C51.5122 108.776 54.5018 111.766 58.1896 111.766Z" fill="#E8457C"/>
    <path d="M111.608 111.766C115.296 111.766 118.285 108.776 118.285 105.088C118.285 101.401 115.296 98.4111 111.608 98.4111C107.92 98.4111 104.931 101.401 104.931 105.088C104.931 108.776 107.92 111.766 111.608 111.766Z" fill="#E8457C"/>
    <path d="M58.1896 81.7177C61.8774 81.7177 64.8669 78.7282 64.8669 75.0404C64.8669 71.3526 61.8774 68.363 58.1896 68.363C54.5018 68.363 51.5122 71.3526 51.5122 75.0404C51.5122 78.7282 54.5018 81.7177 58.1896 81.7177Z" fill="#E8457C"/>
    <path d="M111.608 81.7177C115.296 81.7177 118.285 78.7282 118.285 75.0404C118.285 71.3526 115.296 68.363 111.608 68.363C107.92 68.363 104.931 71.3526 104.931 75.0404C104.931 78.7282 107.92 81.7177 111.608 81.7177Z" fill="#E8457C"/>
    <path d="M115.314 107.592H54.4834L84.8987 54.1368L115.314 107.592ZM60.2259 104.254H109.572L84.8987 60.8876L60.2259 104.254Z" fill="#E8457C"/>
  </g>
  <defs>
    <filter id="filter0_d_2001_474" x="-7.28205" y="-1.28205" width="182.692" height="182.692" filterUnits="userSpaceOnUse" color-interpolation-filters="sRGB">
      <feFlood flood-opacity="0" result="BackgroundImageFix"/>
      <feColorMatrix in="SourceAlpha" type="matrix" values="0 0 0 0 0 0 0 0 0 0 0 0 0 0 0 0 0 0 127 0" result="hardAlpha"/>
      <feOffset/>
      <feGaussianBlur stdDeviation="25.641"/>
      <feComposite in2="hardAlpha" operator="out"/>
      <feColorMatrix type="matrix" values="0 0 0 0 0.909804 0 0 0 0 0.270588 0 0 0 0 0.486275 0 0 0 0.8 0"/>
      <feBlend mode="normal" in2="BackgroundImageFix" result="effect1_dropShadow_2001_474"/>
      <feBlend mode="normal" in="SourceGraphic" in2="effect1_dropShadow_2001_474" result="shape"/>
    </filter>
  </defs>
</svg>