<svg xmlns="http://www.w3.org/2000/svg" width="174" height="184" viewBox="0 0 174 184" fill="none">
  <g filter="url(#filter0_d_2001_450)">
    <path d="M58.1118 123.99L51.6953 52H122.277L115.86 123.99L86.9079 132.128" fill="#E34F26"/>
    <path d="M87.0645 125.868L110.383 119.452L115.861 57.7905H87.0645" fill="#EF652A"/>
    <path d="M87.0644 84.5524H75.3268L74.5443 75.4753H87.0644V66.7113H64.8413L67.1888 93.4729H87.0644V84.5524ZM86.9079 107.558L77.0483 104.897L76.4223 97.8549H67.6583L68.7538 111.783L86.9079 116.791V107.558Z" fill="#EBEBEB"/>
    <path d="M86.9077 84.5524V93.4729H97.8627L96.7672 104.897L86.9077 107.558V116.791L105.062 111.783L107.566 84.5524H86.9077ZM86.9077 66.7113V75.4753H108.348L109.131 66.7113H86.9077Z" fill="white"/>
  </g>
  <defs>
    <filter id="filter0_d_2001_450" x="-4.28205" y="0.717949" width="182.692" height="182.692" filterUnits="userSpaceOnUse" color-interpolation-filters="sRGB">
      <feFlood flood-opacity="0" result="BackgroundImageFix"/>
      <feColorMatrix in="SourceAlpha" type="matrix" values="0 0 0 0 0 0 0 0 0 0 0 0 0 0 0 0 0 0 127 0" result="hardAlpha"/>
      <feOffset/>
      <feGaussianBlur stdDeviation="25.641"/>
      <feComposite in2="hardAlpha" operator="out"/>
      <feColorMatrix type="matrix" values="0 0 0 0 0.890196 0 0 0 0 0.309804 0 0 0 0 0.14902 0 0 0 0.5 0"/>
      <feBlend mode="normal" in2="BackgroundImageFix" result="effect1_dropShadow_2001_450"/>
      <feBlend mode="normal" in="SourceGraphic" in2="effect1_dropShadow_2001_450" result="shape"/>
    </filter>
  </defs>
</svg>