<svg xmlns="http://www.w3.org/2000/svg" width="174" height="174" viewBox="0 0 174 174" fill="none">
  <g filter="url(#filter0_d_2001_455)">
    <path d="M122.12 52.0081H52.0078V122.12H122.12V52.0081Z" fill="#F5DE19"/>
    <path d="M99.1051 106.783C99.7025 107.997 100.631 109.016 101.782 109.725C102.934 110.434 104.263 110.803 105.616 110.79C108.345 110.79 110.09 109.425 110.09 107.534C110.09 105.281 108.297 104.474 105.293 103.16L103.645 102.454C98.8873 100.428 95.7322 97.8914 95.7322 92.5278C95.7322 87.5874 99.4882 83.8239 105.38 83.8239C107.287 83.6861 109.193 84.113 110.859 85.0513C112.526 85.9895 113.879 87.3976 114.75 89.0998L109.599 92.3926C109.264 91.5485 108.68 90.8264 107.924 90.322C107.169 89.8175 106.278 89.5546 105.37 89.5681C104.974 89.5284 104.574 89.5717 104.195 89.6952C103.817 89.8188 103.468 90.0198 103.171 90.2855C102.875 90.5512 102.637 90.8758 102.473 91.2386C102.308 91.6014 102.222 91.9944 102.218 92.3926C102.218 94.3683 103.442 95.1695 106.269 96.399L107.917 97.1051C113.516 99.5065 116.681 101.953 116.681 107.454C116.681 113.386 112.021 116.636 105.763 116.636C103.325 116.792 100.894 116.238 98.7636 115.043C96.6331 113.847 94.8941 112.06 93.7566 109.898L99.1051 106.783ZM75.8304 107.354C76.8645 109.189 77.806 110.742 80.0697 110.742C82.2331 110.742 83.6003 109.896 83.6003 106.603V84.1995H90.1884V106.69C90.1884 113.511 86.1819 116.616 80.3501 116.616C78.2887 116.729 76.2414 116.215 74.4774 115.143C72.7134 114.07 71.3153 112.489 70.4668 110.607L75.8304 107.354Z" fill="black"/>
  </g>
  <defs>
    <filter id="filter0_d_2001_455" x="-4.28205" y="-4.28205" width="182.693" height="182.692" filterUnits="userSpaceOnUse" color-interpolation-filters="sRGB">
      <feFlood flood-opacity="0" result="BackgroundImageFix"/>
      <feColorMatrix in="SourceAlpha" type="matrix" values="0 0 0 0 0 0 0 0 0 0 0 0 0 0 0 0 0 0 127 0" result="hardAlpha"/>
      <feOffset/>
      <feGaussianBlur stdDeviation="25.641"/>
      <feComposite in2="hardAlpha" operator="out"/>
      <feColorMatrix type="matrix" values="0 0 0 0 0.960784 0 0 0 0 0.870588 0 0 0 0 0.0980392 0 0 0 0.3 0"/>
      <feBlend mode="normal" in2="BackgroundImageFix" result="effect1_dropShadow_2001_455"/>
      <feBlend mode="normal" in="SourceGraphic" in2="effect1_dropShadow_2001_455" result="shape"/>
    </filter>
  </defs>
</svg>