<svg xmlns="http://www.w3.org/2000/svg" width="135" height="174" viewBox="0 0 135 174" fill="none">
  <g filter="url(#filter0_d_2001_492)">
    <path d="M68.6165 122.12L66.736 121.497C66.736 121.497 66.9864 111.982 63.5434 111.313C61.2898 108.689 63.8764 -0.718685 72.1146 110.94C70.5515 111.733 69.3555 113.099 68.7767 114.754C68.4665 117.197 68.4128 119.666 68.6165 122.12Z" fill="url(#paint0_linear_2001_492)"/>
    <path d="M69.6333 112.928C74.6403 109.159 78.4747 104.046 80.691 98.1841C82.9073 92.322 83.4144 85.9514 82.1534 79.8125C78.4725 63.574 69.756 58.2355 68.817 56.1972C68.0069 54.928 67.3153 53.5869 66.7512 52.1908L67.4448 97.4357C67.4448 97.4357 66.0075 111.263 69.6333 112.928Z" fill="url(#paint1_linear_2001_492)"/>
    <path d="M65.7794 113.529C65.7794 113.529 50.4524 103.09 51.3388 84.623C51.4215 79.0557 52.698 73.571 55.082 68.5393C57.4661 63.5076 60.9023 59.0462 65.1584 55.4563C65.6558 55.0338 66.0509 54.504 66.3142 53.9068C66.5774 53.3096 66.7019 52.6605 66.6783 52.0083C67.6323 54.0616 67.4771 82.6649 67.5773 86.0102C67.9654 99.0235 66.8536 111.073 65.7794 113.529Z" fill="url(#paint2_linear_2001_492)"/>
  </g>
  <defs>
    <filter id="filter0_d_2001_492" x="-24.2821" y="-4.28205" width="182.692" height="182.692" filterUnits="userSpaceOnUse" color-interpolation-filters="sRGB">
      <feFlood flood-opacity="0" result="BackgroundImageFix"/>
      <feColorMatrix in="SourceAlpha" type="matrix" values="0 0 0 0 0 0 0 0 0 0 0 0 0 0 0 0 0 0 127 0" result="hardAlpha"/>
      <feOffset/>
      <feGaussianBlur stdDeviation="25.641"/>
      <feComposite in2="hardAlpha" operator="out"/>
      <feColorMatrix type="matrix" values="0 0 0 0 0.278431 0 0 0 0 0.647059 0 0 0 0 0.286275 0 0 0 0.5 0"/>
      <feBlend mode="normal" in2="BackgroundImageFix" result="effect1_dropShadow_2001_492"/>
      <feBlend mode="normal" in="SourceGraphic" in2="effect1_dropShadow_2001_492" result="shape"/>
    </filter>
    <linearGradient id="paint0_linear_2001_492" x1="55.9754" y1="87.6961" x2="77.5891" y2="95.0306" gradientUnits="userSpaceOnUse">
      <stop offset="0.231" stop-color="#999875"/>
      <stop offset="0.563" stop-color="#9B9977"/>
      <stop offset="0.683" stop-color="#A09F7E"/>
      <stop offset="0.768" stop-color="#A9A889"/>
      <stop offset="0.837" stop-color="#B7B69A"/>
      <stop offset="0.896" stop-color="#C9C7B0"/>
      <stop offset="0.948" stop-color="#DEDDCB"/>
      <stop offset="0.994" stop-color="#F8F6EB"/>
      <stop offset="1" stop-color="#FBF9EF"/>
    </linearGradient>
    <linearGradient id="paint1_linear_2001_492" x1="63.9015" y1="51.8675" x2="73.4569" y2="111.535" gradientUnits="userSpaceOnUse">
      <stop stop-color="#48A547"/>
      <stop offset="1" stop-color="#3F9143"/>
    </linearGradient>
    <linearGradient id="paint2_linear_2001_492" x1="50.0203" y1="86.451" x2="75.6629" y2="77.8633" gradientUnits="userSpaceOnUse">
      <stop stop-color="#41A247"/>
      <stop offset="0.352" stop-color="#4BA74B"/>
      <stop offset="0.956" stop-color="#67B554"/>
      <stop offset="1" stop-color="#69B655"/>
    </linearGradient>
  </defs>
</svg>