<svg xmlns="http://www.w3.org/2000/svg" width="40" height="40" viewBox="0 0 40 40" fill="none">
  <path d="M20 12V18M20 12C22.2091 12 24 10.2091 24 8C24 5.79086 22.2091 4 20 4C17.7909 4 16 5.79086 16 8C16 10.2091 17.7909 12 20 12ZM20 18C17.7909 18 16 19.7909 16 22C16 24.2091 17.7909 26 20 26C22.2091 26 24 24.2091 24 22C24 19.7909 22.2091 18 20 18ZM11.9999 18.5001L16 21M28 18.5001L24 21M13 29L17 25M27 29L23 25M12 16C12 18.2091 10.2091 20 8 20C5.79086 20 4 18.2091 4 16C4 13.7909 5.79086 12 8 12C10.2091 12 12 13.7909 12 16ZM36 16C36 18.2091 34.2091 20 32 20C29.7909 20 28 18.2091 28 16C28 13.7909 29.7909 12 32 12C34.2091 12 36 13.7909 36 16ZM34 32C34 34.2091 32.2091 36 30 36C27.7909 36 26 34.2091 26 32C26 29.7909 27.7909 28 30 28C32.2091 28 34 29.7909 34 32ZM14 32C14 34.2091 12.2091 36 10 36C7.79086 36 6 34.2091 6 32C6 29.7909 7.79086 28 10 28C12.2091 28 14 29.7909 14 32Z" stroke="#999999" stroke-width="2" stroke-linecap="round" stroke-linejoin="round"/>
</svg>