<svg xmlns="http://www.w3.org/2000/svg" width="174" height="166" viewBox="0 0 174 166" fill="none">
  <g filter="url(#filter0_d_2001_466)">
    <path d="M87.0642 89.2594C90.5215 89.2594 93.3242 86.4567 93.3242 82.9994C93.3242 79.5421 90.5215 76.7394 87.0642 76.7394C83.6069 76.7394 80.8042 79.5421 80.8042 82.9994C80.8042 86.4567 83.6069 89.2594 87.0642 89.2594Z" fill="#00D8FF"/>
    <path d="M87.0644 97.3524C79.5402 97.5344 72.0348 96.5202 64.8288 94.3476C61.5 93.2924 58.3954 91.6301 55.6717 89.4448C54.6323 88.6982 53.7668 87.7356 53.1345 86.6231C52.5021 85.5106 52.118 84.2744 52.0083 82.9995C52.0083 78.8603 56.5556 74.8038 64.1728 72.1496C71.5714 69.7977 79.3018 68.6579 87.0644 68.7742C94.7234 68.6672 102.35 69.7864 109.656 72.0895C112.861 73.1115 115.861 74.6935 118.515 76.762C119.536 77.4737 120.389 78.4014 121.012 79.4793C121.635 80.5572 122.014 81.759 122.12 82.9995C122.12 87.3013 117.037 91.6608 108.849 94.3701C101.783 96.4719 94.4358 97.4777 87.0644 97.3524ZM87.0644 71.769C79.6378 71.6697 72.2427 72.7533 65.1568 74.9791C58.1456 77.4255 55.0031 80.7709 55.0031 82.9919C55.0031 85.3157 58.381 88.969 65.7979 91.5056C72.6916 93.5735 79.8694 94.5361 87.0644 94.3576C94.1167 94.4837 101.147 93.5295 107.91 91.5281C115.61 88.9765 119.116 85.3182 119.116 82.9995C118.989 82.2038 118.699 81.4429 118.264 80.7649C117.829 80.087 117.258 79.5067 116.587 79.0607C114.212 77.2256 111.533 75.8236 108.671 74.919C101.683 72.7249 94.3885 71.6615 87.0644 71.769Z" fill="#00D8FF"/>
    <path d="M72.8415 114.222C71.6733 114.248 70.519 113.965 69.4961 113.4C65.9104 111.332 64.6684 105.367 66.1733 97.4423C67.8326 89.8579 70.7076 82.5917 74.6869 75.9253C78.4197 69.2374 83.1985 63.1897 88.8421 58.0117C91.3289 55.7448 94.1978 53.9365 97.3156 52.6706C98.4433 52.1421 99.6735 51.8682 100.919 51.8682C102.164 51.8682 103.394 52.1421 104.522 52.6706C108.251 54.8191 109.485 61.3996 107.745 69.8456C106.034 77.0185 103.234 83.8867 99.4415 90.2107C95.8401 96.8196 91.2118 102.815 85.7296 107.972C83.1524 110.327 80.1615 112.186 76.908 113.453C75.6054 113.936 74.2306 114.196 72.8415 114.222ZM77.2811 77.4127C73.4852 83.7962 70.7297 90.7433 69.118 97.9931C67.7333 105.292 69.0629 109.682 70.996 110.799C72.9992 111.958 77.862 110.859 83.7664 105.7C88.9999 100.76 93.4175 95.0214 96.8549 88.6983C100.488 82.6524 103.174 76.0859 104.82 69.2271C106.458 61.2769 105.043 56.4091 103.035 55.2523C102.282 54.9639 101.478 54.8348 100.673 54.8731C99.8675 54.9115 99.0791 55.1165 98.3573 55.4751C95.582 56.6203 93.0306 58.2461 90.8202 60.2778C85.4283 65.2377 80.8635 71.0273 77.2986 77.4277L77.2811 77.4127Z" fill="#00D8FF"/>
    <path d="M101.28 114.254C97.8866 114.254 93.5772 112.201 89.09 108.342C83.3476 103.117 78.488 96.9975 74.6995 90.2207C70.77 83.6461 67.9178 76.4851 66.251 69.0093C65.5281 65.7202 65.3941 62.329 65.8553 58.9932C65.962 57.7558 66.3388 56.5568 66.9592 55.4808C67.5796 54.4048 68.4285 53.478 69.4461 52.7658C73.1695 50.6098 79.4871 52.8259 85.935 58.55C91.295 63.6136 95.8468 69.4693 99.4315 75.9128C103.359 82.3339 106.241 89.3381 107.97 96.6635C108.724 100.073 108.841 103.593 108.313 107.045C108.188 108.318 107.789 109.549 107.143 110.653C106.497 111.758 105.62 112.709 104.572 113.443C103.566 114.001 102.43 114.281 101.28 114.254ZM77.2911 88.7133C80.9255 95.1897 85.5676 101.046 91.0431 106.064C96.6746 110.909 101.142 111.95 103.062 110.821C105.066 109.657 106.543 104.904 105.02 97.2144C103.353 90.2205 100.588 83.5348 96.8299 77.4052C93.409 71.2381 89.0643 65.631 83.9468 60.7786C77.8771 55.39 72.9542 54.1855 70.9485 55.3474C70.3233 55.8554 69.8103 56.4875 69.4418 57.2038C69.0733 57.9201 68.8574 58.7051 68.8075 59.5091C68.4094 62.484 68.5391 65.5059 69.1907 68.4358C70.794 75.5851 73.5295 82.4323 77.2936 88.7183L77.2911 88.7133Z" fill="#00D8FF"/>
  </g>
  <defs>
    <filter id="filter0_d_2001_466" x="-4.28205" y="-8.28205" width="182.693" height="182.692" filterUnits="userSpaceOnUse" color-interpolation-filters="sRGB">
      <feFlood flood-opacity="0" result="BackgroundImageFix"/>
      <feColorMatrix in="SourceAlpha" type="matrix" values="0 0 0 0 0 0 0 0 0 0 0 0 0 0 0 0 0 0 127 0" result="hardAlpha"/>
      <feOffset/>
      <feGaussianBlur stdDeviation="25.641"/>
      <feComposite in2="hardAlpha" operator="out"/>
      <feColorMatrix type="matrix" values="0 0 0 0 0 0 0 0 0 0.847059 0 0 0 0 1 0 0 0 0.5 0"/>
      <feBlend mode="normal" in2="BackgroundImageFix" result="effect1_dropShadow_2001_466"/>
      <feBlend mode="normal" in="SourceGraphic" in2="effect1_dropShadow_2001_466" result="shape"/>
    </filter>
  </defs>
</svg>