<svg width="52" height="52" viewBox="0 0 52 52" fill="none" xmlns="http://www.w3.org/2000/svg">
<g id="seat-svgrepo-com 2">
<g id="Group">
<g id="Group_2">
<g id="Group_3">
<path id="Vector" d="M45.0666 20.8866H39.2371L38.4799 7.10663C38.3066 3.12 35.0133 0 31.0266 0H20.9732C16.9866 0 13.7798 3.12 13.5198 7.10663L12.7648 20.8H6.93332C5.97995 20.8 5.19995 21.58 5.19995 22.5334V24.2667C5.19995 25.22 5.97995 26 6.93332 26V35.5334C6.93332 37.0067 8.05995 38.1334 9.53332 38.1334H10.3999V39C10.3999 39.52 10.7466 39.8666 11.2666 39.8666H13.8666V49.4C13.8666 50.8734 14.9932 52 16.4666 52C17.9399 52 19.0666 50.8734 19.0666 49.4V39.8666H32.9332V49.4C32.9332 50.8734 34.0598 52 35.5332 52C37.0066 52 38.1332 50.8734 38.1332 49.4V39.8666H40.7332C41.2532 39.8666 41.5998 39.52 41.5998 39V38.1334H42.4665C43.9398 38.1334 45.0665 37.0067 45.0665 35.62V26C46.0198 26 46.7998 25.22 46.7998 24.3534V22.62C46.7999 21.6666 46.0199 20.8866 45.0666 20.8866ZM20.9733 1.73337H31.0267C34.06 1.73337 36.5733 4.16 36.7467 7.19337L37.7154 25.0459C37.7053 25.0999 37.6999 25.1573 37.6999 25.2201L37.9102 28.6371L37.9581 29.5202C37.8994 29.5111 37.8402 29.5038 37.7807 29.497C37.6287 29.4675 37.448 29.4668 37.2666 29.4668H14.7333C14.5519 29.4668 14.3711 29.4675 14.2192 29.497C14.1597 29.5038 14.1005 29.5111 14.0418 29.5202L14.2731 25.2562C14.2835 25.2163 14.2929 25.1757 14.2999 25.1336L14.4733 21.6669C14.4733 21.652 14.4718 21.6357 14.4705 21.6195L15.2533 7.19357C15.4266 4.16 17.9399 1.73337 20.9733 1.73337ZM6.93332 22.5334H12.6533L12.5667 24.2667H7.79995H6.93332V22.5334ZM9.53332 36.4C9.01332 36.4 8.66668 36.0534 8.66668 35.5334V26H12.4781L12.4608 26.3145L12.22 30.2466C12.2045 30.2586 12.19 30.2715 12.1745 30.2836C11.0931 31.0648 10.4 32.3376 10.4 33.8V36.4H9.53332ZM17.3333 49.4C17.3333 49.92 16.9867 50.2666 16.4667 50.2666C15.9467 50.2666 15.6 49.92 15.6 49.4V39.8666H17.3334L17.3333 49.4ZM36.3999 49.4C36.3999 49.92 36.0533 50.2666 35.5333 50.2666C35.0133 50.2666 34.6667 49.92 34.6667 49.4V39.8666H36.3999V49.4ZM39.8666 38.1334H37.2666H33.7999H18.1999H14.7333H12.1333V37.2667V33.8C12.1333 33.742 12.1354 33.6842 12.1392 33.6269C12.1394 33.6234 12.1397 33.6199 12.1399 33.6164C12.1788 33.063 12.3925 32.5461 12.7265 32.1171C12.8866 31.9247 13.0749 31.7572 13.2859 31.6198C13.3582 31.6083 13.4389 31.5872 13.52 31.5465C13.7297 31.3893 13.9712 31.2963 14.2249 31.2466C14.2522 31.2415 14.2796 31.2369 14.3072 31.2326C14.3205 31.2305 14.3339 31.2285 14.3473 31.2267C14.3823 31.2218 14.4176 31.2175 14.4531 31.2139C14.4655 31.2127 14.4779 31.2119 14.4904 31.2109C14.5234 31.208 14.5564 31.2054 14.5898 31.2037C14.6375 31.2014 14.6855 31.1999 14.7333 31.1999H37.2667C37.3146 31.1999 37.3624 31.2014 37.4102 31.2037C37.4436 31.2054 37.4766 31.208 37.5096 31.2109C37.522 31.2119 37.5345 31.2128 37.5469 31.2139C37.5824 31.2175 37.6177 31.2218 37.6527 31.2267C37.6661 31.2285 37.6795 31.2306 37.6928 31.2326C37.7204 31.2369 37.7479 31.2416 37.7751 31.2466C38.0289 31.2963 38.2704 31.3893 38.4799 31.5465C38.5157 31.5703 38.5533 31.5902 38.5918 31.6075C39.3369 32.0273 39.8011 32.7785 39.8601 33.6172C39.8603 33.6202 39.8606 33.6233 39.8607 33.6263C39.8645 33.6838 39.8666 33.7417 39.8666 33.7999V37.2665V38.1334ZM43.3333 35.5334C43.3333 36.0534 42.9867 36.4 42.4667 36.4H41.5999V33.8C41.5999 33.7158 41.5971 33.6323 41.5925 33.5493C41.5908 33.5178 41.5879 33.4866 41.5856 33.4552C41.5819 33.4057 41.5778 33.3564 41.5725 33.3074C41.5681 33.2665 41.5629 33.2258 41.5574 33.1851C41.5525 33.1498 41.5473 33.1147 41.5416 33.0796C41.5337 33.0295 41.5252 32.9798 41.5156 32.9303C41.5127 32.9152 41.5092 32.9003 41.5061 32.8852C41.2827 31.7966 40.6664 30.8603 39.7799 30.2466L39.5199 26H43.3333V35.5334ZM45.0666 24.2666H39.4332L39.3466 22.5333H45.0666V24.2666Z" fill="url(#paint0_radial_1333_385)"/>
<path id="Vector_2" d="M17.7666 8.14656C18.2866 8.23319 18.7199 7.88656 18.7199 7.36656C18.8066 6.15319 19.7599 5.19992 20.9733 5.19992H31.0267C32.24 5.19992 33.1933 6.15329 33.28 7.36656C33.28 7.79992 33.7134 8.14656 34.1467 8.14656C34.6667 8.14656 35.0133 7.71319 35.0133 7.27992C34.9267 5.11329 33.1933 3.46655 31.0267 3.46655H20.9733C18.8933 3.46655 17.0733 5.11319 16.9867 7.19319C16.8999 7.71329 17.2466 8.14656 17.7666 8.14656Z" fill="url(#paint1_radial_1333_385)"/>
</g>
</g>
</g>
</g>
<defs>
<radialGradient id="paint0_radial_1333_385" cx="0" cy="0" r="1" gradientUnits="userSpaceOnUse" gradientTransform="translate(6.54188 13.5) rotate(31.6447) scale(46.6978 972.535)">
<stop stop-color="#293EFF"/>
<stop offset="0.0001" stop-color="#2D3CFF"/>
<stop offset="0.274921" stop-color="#6619FF"/>
<stop offset="0.42597" stop-color="#8506FF"/>
<stop offset="0.470486" stop-color="#8F00FF"/>
<stop offset="0.530142" stop-color="#9B0EE2"/>
<stop offset="0.629105" stop-color="#B025B3"/>
<stop offset="0.764528" stop-color="#CD4471"/>
<stop offset="0.899951" stop-color="#EA6330"/>
<stop offset="0.952037" stop-color="#F56F17"/>
<stop offset="1" stop-color="#FF7A00"/>
<stop offset="1" stop-color="#0047FF"/>
</radialGradient>
<radialGradient id="paint1_radial_1333_385" cx="0" cy="0" r="1" gradientUnits="userSpaceOnUse" gradientTransform="translate(17.5553 4.685) rotate(7.30911) scale(17.381 102.268)">
<stop stop-color="#293EFF"/>
<stop offset="0.0001" stop-color="#2D3CFF"/>
<stop offset="0.274921" stop-color="#6619FF"/>
<stop offset="0.42597" stop-color="#8506FF"/>
<stop offset="0.470486" stop-color="#8F00FF"/>
<stop offset="0.530142" stop-color="#9B0EE2"/>
<stop offset="0.629105" stop-color="#B025B3"/>
<stop offset="0.764528" stop-color="#CD4471"/>
<stop offset="0.899951" stop-color="#EA6330"/>
<stop offset="0.952037" stop-color="#F56F17"/>
<stop offset="1" stop-color="#FF7A00"/>
<stop offset="1" stop-color="#0047FF"/>
</radialGradient>
</defs>
</svg>
