<svg xmlns="http://www.w3.org/2000/svg" width="184" height="164" viewBox="0 0 184 164" fill="none">
  <g filter="url(#filter0_d_2001_483)">
    <path d="M112.234 97.1333H122.181V73.2496L110.974 62.0427L103.94 69.0766L112.234 77.3702V97.1333ZM122.207 102.12H107.72H87.5105L79.2168 93.8263L82.7337 90.3094L89.5839 97.1595H103.678L89.7938 83.2493L93.337 79.7061L107.221 93.5901V79.4961L100.397 72.6722L103.888 69.1816L86.6444 51.8594H69.6371H52L61.9209 61.7803V61.8065H61.9734H82.4975L89.7676 69.0766L79.1381 79.7061L71.868 72.436V66.7932H61.9209V76.5566L79.1381 93.7738L72.1305 100.781L83.3374 111.988H100.345H132.128L122.207 102.12Z" fill="white"/>
  </g>
  <defs>
    <filter id="filter0_d_2001_483" x="0.717949" y="-9.28205" width="182.692" height="182.692" filterUnits="userSpaceOnUse" color-interpolation-filters="sRGB">
      <feFlood flood-opacity="0" result="BackgroundImageFix"/>
      <feColorMatrix in="SourceAlpha" type="matrix" values="0 0 0 0 0 0 0 0 0 0 0 0 0 0 0 0 0 0 127 0" result="hardAlpha"/>
      <feOffset/>
      <feGaussianBlur stdDeviation="25.641"/>
      <feComposite in2="hardAlpha" operator="out"/>
      <feColorMatrix type="matrix" values="0 0 0 0 1 0 0 0 0 1 0 0 0 0 1 0 0 0 0.3 0"/>
      <feBlend mode="normal" in2="BackgroundImageFix" result="effect1_dropShadow_2001_483"/>
      <feBlend mode="normal" in="SourceGraphic" in2="effect1_dropShadow_2001_483" result="shape"/>
    </filter>
  </defs>
</svg>